<?xml version="1.0" standalone="no"?>
<!DOCTYPE svg PUBLIC "-//W3C//DTD SVG 20010904//EN"
 "http://www.w3.org/TR/2001/REC-SVG-20010904/DTD/svg10.dtd">
<svg version="1.0" xmlns="http://www.w3.org/2000/svg"
 width="512.000000pt" height="512.000000pt" viewBox="0 0 512.000000 512.000000"
 preserveAspectRatio="xMidYMid meet">

<g transform="translate(0.000000,512.000000) scale(0.100000,-0.100000)"
fill="#000000" stroke="none">
<path d="M2355 5109 c-616 -50 -1204 -327 -1630 -770 -442 -459 -689 -1034
-720 -1674 -6 -114 -4 -134 12 -165 37 -71 117 -98 189 -64 57 27 71 63 78
199 14 255 52 455 126 670 109 315 279 590 515 834 358 370 807 600 1320 676
145 22 446 25 585 6 515 -69 951 -279 1318 -635 56 -54 102 -103 102 -108 0
-4 -131 -8 -291 -8 -247 0 -296 -2 -325 -16 -96 -46 -99 -190 -5 -242 38 -22
46 -22 497 -22 440 0 460 1 492 20 18 11 41 34 52 52 19 32 20 52 20 498 0
444 -1 466 -20 497 -54 89 -196 85 -242 -7 -16 -31 -18 -67 -18 -278 l0 -244
-97 92 c-525 494 -1243 747 -1958 689z"/>
<path d="M2495 3842 c-63 -40 -70 -55 -73 -166 l-4 -102 -55 -19 c-80 -28
-193 -106 -247 -172 -95 -115 -139 -235 -138 -383 0 -220 117 -412 311 -514
82 -42 121 -53 240 -67 115 -13 186 -43 244 -103 59 -60 80 -107 85 -186 13
-221 -219 -381 -419 -288 -101 47 -179 157 -179 253 0 122 -108 197 -208 146
-57 -29 -76 -69 -74 -155 6 -231 177 -453 405 -526 l37 -12 0 -91 c0 -74 4
-98 20 -124 53 -87 158 -96 230 -18 23 24 25 36 28 130 l4 104 51 17 c144 48
267 158 336 300 75 157 74 350 -4 504 -70 139 -218 259 -375 307 -24 7 -87 18
-139 24 -111 12 -166 35 -226 95 -111 111 -112 300 -3 413 89 93 226 121 340
69 104 -48 161 -129 179 -255 12 -82 33 -118 84 -143 51 -25 69 -25 123 0 58
26 87 87 77 163 -17 140 -55 236 -135 334 -57 71 -177 155 -257 180 l-51 16
-4 103 -3 104 -37 36 c-45 46 -114 57 -163 26z"/>
<path d="M4913 2684 c-56 -28 -70 -64 -77 -199 -14 -249 -46 -423 -118 -642
-188 -575 -614 -1061 -1163 -1328 -551 -268 -1157 -304 -1744 -104 -139 48
-362 156 -486 237 -203 131 -437 349 -578 537 l-67 90 323 5 c286 4 326 7 350
23 84 55 87 187 5 237 -32 19 -49 20 -503 20 -449 0 -471 -1 -502 -20 -64 -39
-63 -30 -63 -547 0 -452 1 -469 20 -501 36 -59 126 -80 187 -42 64 39 67 52
73 288 l5 214 35 -43 c60 -76 192 -209 280 -284 388 -329 811 -520 1315 -596
167 -25 492 -30 650 -10 409 52 783 189 1110 406 690 457 1110 1196 1150 2025
7 149 -1 183 -56 223 -37 27 -106 32 -146 11z"/>
</g>
</svg>
